# lamp symbol
o lamp
v 0.000000 -0.780454 0.000000
v 0.000000 -0.358148 -0.163621
v 0.081810 -0.358148 -0.141700
v 0.141700 -0.358148 -0.081810
v 0.163621 -0.358148 0.000000
v 0.141700 -0.358148 0.081811
v 0.081810 -0.358148 0.141700
v 0.000000 -0.358148 0.163621
v -0.081810 -0.358148 0.141700
v -0.141700 -0.358148 0.081811
v -0.163621 -0.358148 0.000000
v -0.141700 -0.358148 -0.081810
v -0.081811 -0.358148 -0.141700
v 0.000000 0.332918 -0.137899
v 0.000000 0.254804 -0.254804
v 0.000000 0.137899 -0.332918
v 0.000000 0.000000 -0.360348
v 0.000000 -0.137899 -0.332918
v 0.068950 0.332918 -0.119424
v 0.127402 0.254804 -0.220667
v 0.166459 0.137899 -0.288315
v 0.180174 0.000000 -0.312070
v 0.166459 -0.137899 -0.288315
v 0.127402 -0.254804 -0.220667
v 0.119424 0.332918 -0.068949
v 0.220667 0.254804 -0.127402
v 0.288315 0.137899 -0.166459
v 0.312070 0.000000 -0.180174
v 0.288315 -0.137899 -0.166459
v 0.220667 -0.254804 -0.127402
v 0.137899 0.332918 0.000000
v 0.254804 0.254804 0.000000
v 0.332918 0.137899 0.000000
v 0.360347 0.000000 0.000000
v 0.332918 -0.137899 0.000000
v 0.254804 -0.254804 0.000000
v 0.119424 0.332918 0.068949
v 0.220667 0.254804 0.127402
v 0.288315 0.137899 0.166459
v 0.312070 0.000000 0.180174
v 0.288315 -0.137899 0.166459
v 0.220667 -0.254804 0.127402
v 0.068950 0.332918 0.119424
v 0.127402 0.254804 0.220667
v 0.166459 0.137899 0.288315
v 0.180174 0.000000 0.312070
v 0.166459 -0.137899 0.288315
v 0.127402 -0.254804 0.220667
v 0.000000 0.332918 0.137899
v 0.000000 0.254804 0.254804
v -0.000000 0.137899 0.332918
v -0.000000 0.000000 0.360348
v -0.000000 -0.137899 0.332918
v 0.000000 -0.254804 0.254804
v -0.068949 0.332918 0.119424
v -0.127402 0.254804 0.220667
v -0.166459 0.137899 0.288315
v -0.180174 0.000000 0.312070
v -0.166459 -0.137899 0.288315
v -0.127402 -0.254804 0.220667
v -0.119424 0.332918 0.068949
v -0.220667 0.254804 0.127402
v -0.288315 0.137899 0.166459
v -0.312070 0.000000 0.180174
v -0.288315 -0.137899 0.166459
v -0.220667 -0.254804 0.127402
v -0.137899 0.332918 0.000000
v -0.254804 0.254804 -0.000000
v -0.332918 0.137899 -0.000000
v -0.360348 0.000000 -0.000000
v -0.332918 -0.137899 -0.000000
v -0.254804 -0.254804 -0.000000
v -0.119424 0.332918 -0.068949
v -0.220667 0.254804 -0.127402
v -0.288315 0.137899 -0.166459
v -0.312070 0.000000 -0.180174
v -0.288315 -0.137899 -0.166459
v -0.220667 -0.254804 -0.127402
v -0.068949 0.332918 -0.119424
v -0.127402 0.254804 -0.220667
v -0.166459 0.137899 -0.288315
v -0.180174 0.000000 -0.312070
v -0.166459 -0.137899 -0.288315
v -0.127402 -0.254804 -0.220667
v 0.000000 0.360348 0.000000
v 0.000000 -0.254804 -0.254804
v 0.000000 -0.748598 -0.163621
v 0.081810 -0.748598 -0.141700
v 0.141700 -0.748598 -0.081810
v 0.163621 -0.748598 0.000000
v 0.141700 -0.748598 0.081811
v 0.081810 -0.748598 0.141700
v 0.000000 -0.748598 0.163621
v -0.081810 -0.748598 0.141700
v -0.141700 -0.748598 0.081811
v -0.163621 -0.748598 0.000000
v -0.141700 -0.748598 -0.081810
v -0.081811 -0.748598 -0.141700
vn 0.0000 -0.5888 -0.8083
vn 0.0000 -0.3746 -0.9272
vn 0.4636 -0.3746 -0.8030
vn 0.4041 -0.5888 -0.7000
vn 0.8030 -0.3746 -0.4636
vn 0.7000 -0.5888 -0.4041
vn 0.9272 -0.3746 0.0000
vn 0.8083 -0.5888 0.0000
vn 0.8030 -0.3746 0.4636
vn 0.7000 -0.5888 0.4041
vn 0.4636 -0.3746 0.8030
vn 0.4041 -0.5888 0.7000
vn 0.0000 -0.3746 0.9272
vn 0.0000 -0.5888 0.8083
vn -0.4636 -0.3746 0.8030
vn -0.4041 -0.5888 0.7000
vn -0.8030 -0.3746 0.4636
vn -0.7000 -0.5888 0.4041
vn -0.9272 -0.3746 0.0000
vn -0.8083 -0.5888 0.0000
vn -0.8030 -0.3746 -0.4636
vn -0.7000 -0.5888 -0.4041
vn 0.3982 -0.6046 -0.6897
vn 0.6897 -0.6046 -0.3982
vn -0.4636 -0.3746 -0.8030
vn -0.4041 -0.5888 -0.7000
vn 0.0000 -0.3717 -0.9283
vn 0.0000 0.0000 -1.0000
vn 0.5000 0.0000 -0.8660
vn 0.4642 -0.3717 -0.8039
vn 0.0000 0.3717 -0.9283
vn 0.0000 0.6913 -0.7226
vn 0.3613 0.6913 -0.6258
vn 0.4642 0.3717 -0.8039
vn 0.0000 0.9122 -0.4097
vn 0.0000 1.0000 0.0000
vn 0.2048 0.9122 -0.3548
vn 0.0000 -0.6046 -0.7965
vn 0.3548 0.9122 -0.2048
vn 0.8039 -0.3717 -0.4642
vn 0.8039 0.3717 -0.4642
vn 0.8660 0.0000 -0.5000
vn 0.6258 0.6913 -0.3613
vn 0.9283 -0.3717 0.0000
vn 0.7965 -0.6046 0.0000
vn 0.9283 0.3717 0.0000
vn 1.0000 0.0000 0.0000
vn 0.4097 0.9122 0.0000
vn 0.7226 0.6913 0.0000
vn -0.3982 -0.6046 -0.6897
vn -0.6897 -0.6046 -0.3982
vn 0.8660 0.0000 0.5000
vn 0.8039 -0.3717 0.4642
vn 0.6258 0.6913 0.3613
vn 0.8039 0.3717 0.4642
vn 0.3548 0.9122 0.2048
vn 0.6897 -0.6046 0.3982
vn 0.5000 0.0000 0.8660
vn 0.4642 -0.3717 0.8039
vn 0.3613 0.6913 0.6258
vn 0.4642 0.3717 0.8039
vn 0.2048 0.9122 0.3548
vn 0.3982 -0.6046 0.6897
vn -0.7965 -0.6046 0.0000
vn 0.0000 -0.3717 0.9283
vn 0.0000 -0.6046 0.7965
vn 0.0000 0.3717 0.9283
vn 0.0000 0.0000 1.0000
vn 0.0000 0.9122 0.4097
vn 0.0000 0.6913 0.7226
vn -0.6897 -0.6046 0.3982
vn -0.4642 0.3717 0.8039
vn -0.5000 0.0000 0.8660
vn -0.2048 0.9122 0.3548
vn -0.3613 0.6913 0.6258
vn -0.3982 -0.6046 0.6897
vn -0.4642 -0.3717 0.8039
vn -0.8660 0.0000 0.5000
vn -0.8039 -0.3717 0.4642
vn -0.6258 0.6913 0.3613
vn -0.8039 0.3717 0.4642
vn -0.3548 0.9122 0.2048
vn -0.7226 0.6913 0.0000
vn -0.9283 0.3717 0.0000
vn -0.4097 0.9122 0.0000
vn -0.9283 -0.3717 0.0000
vn -1.0000 0.0000 0.0000
vn -0.8039 -0.3717 -0.4642
vn -0.8039 0.3717 -0.4642
vn -0.8660 0.0000 -0.5000
vn -0.3548 0.9122 -0.2048
vn -0.6258 0.6913 -0.3613
vn -0.2048 0.9122 -0.3548
vn -0.3613 0.6913 -0.6258
vn -0.5000 0.0000 -0.8660
vn -0.4642 -0.3717 -0.8039
vn -0.4642 0.3717 -0.8039
vn 0.0000 -1.0000 0.0000
s 1
f 87//1 2//2 3//3 88//4
f 88//4 3//3 4//5 89//6
f 89//6 4//5 5//7 90//8
f 90//8 5//7 6//9 91//10
f 91//10 6//9 7//11 92//12
f 92//12 7//11 8//13 93//14
f 93//14 8//13 9//15 94//16
f 94//16 9//15 10//17 95//18
f 95//18 10//17 11//19 96//20
f 96//20 11//19 12//21 97//22
f 3//3 24//23 30//24 4//5
f 97//22 12//21 13//25 98//26
f 98//26 13//25 2//2 87//1
f 18//27 17//28 22//29 23//30
f 16//31 15//32 20//33 21//34
f 14//35 85//36 19//37
f 86//38 18//27 23//30 24//23
f 17//28 16//31 21//34 22//29
f 15//32 14//35 19//37 20//33
f 19//37 85//36 25//39
f 24//23 23//30 29//40 30//24
f 22//29 21//34 27//41 28//42
f 20//33 19//37 25//39 26//43
f 2//2 86//38 24//23 3//3
f 23//30 22//29 28//42 29//40
f 21//34 20//33 26//43 27//41
f 30//24 29//40 35//44 36//45
f 28//42 27//41 33//46 34//47
f 26//43 25//39 31//48 32//49
f 13//25 84//50 86//38 2//2
f 29//40 28//42 34//47 35//44
f 27//41 26//43 32//49 33//46
f 25//39 85//36 31//48
f 12//21 78//51 84//50 13//25
f 35//44 34//47 40//52 41//53
f 33//46 32//49 38//54 39//55
f 31//48 85//36 37//56
f 36//45 35//44 41//53 42//57
f 34//47 33//46 39//55 40//52
f 32//49 31//48 37//56 38//54
f 41//53 40//52 46//58 47//59
f 39//55 38//54 44//60 45//61
f 37//56 85//36 43//62
f 42//57 41//53 47//59 48//63
f 40//52 39//55 45//61 46//58
f 38//54 37//56 43//62 44//60
f 11//19 72//64 78//51 12//21
f 48//63 47//59 53//65 54//66
f 46//58 45//61 51//67 52//68
f 44//60 43//62 49//69 50//70
f 10//17 66//71 72//64 11//19
f 47//59 46//58 52//68 53//65
f 45//61 44//60 50//70 51//67
f 43//62 85//36 49//69
f 52//68 51//67 57//72 58//73
f 50//70 49//69 55//74 56//75
f 9//15 60//76 66//71 10//17
f 53//65 52//68 58//73 59//77
f 51//67 50//70 56//75 57//72
f 49//69 85//36 55//74
f 54//66 53//65 59//77 60//76
f 8//13 54//66 60//76 9//15
f 59//77 58//73 64//78 65//79
f 57//72 56//75 62//80 63//81
f 55//74 85//36 61//82
f 60//76 59//77 65//79 66//71
f 58//73 57//72 63//81 64//78
f 56//75 55//74 61//82 62//80
f 63//81 62//80 68//83 69//84
f 61//82 85//36 67//85
f 66//71 65//79 71//86 72//64
f 64//78 63//81 69//84 70//87
f 62//80 61//82 67//85 68//83
f 7//11 48//63 54//66 8//13
f 65//79 64//78 70//87 71//86
f 72//64 71//86 77//88 78//51
f 70//87 69//84 75//89 76//90
f 68//83 67//85 73//91 74//92
f 6//9 42//57 48//63 7//11
f 71//86 70//87 76//90 77//88
f 69//84 68//83 74//92 75//89
f 67//85 85//36 73//91
f 74//92 73//91 79//93 80//94
f 5//7 36//45 42//57 6//9
f 77//88 76//90 82//95 83//96
f 75//89 74//92 80//94 81//97
f 73//91 85//36 79//93
f 78//51 77//88 83//96 84//50
f 76//90 75//89 81//97 82//95
f 4//5 30//24 36//45 5//7
f 83//96 82//95 17//28 18//27
f 81//97 80//94 15//32 16//31
f 79//93 85//36 14//35
f 84//50 83//96 18//27 86//38
f 82//95 81//97 16//31 17//28
f 80//94 79//93 14//35 15//32
f 1//98 87//1 88//4
f 1//98 88//4 89//6
f 1//98 89//6 90//8
f 1//98 90//8 91//10
f 1//98 91//10 92//12
f 1//98 92//12 93//14
f 1//98 93//14 94//16
f 1//98 94//16 95//18
f 1//98 95//18 96//20
f 1//98 96//20 97//22
f 1//98 97//22 98//26
f 1//98 98//26 87//1
